HIERARCHY
ROOT Hips
{
	OFFSET 173.408295 91.952423 -518.280273
	CHANNELS 6 Xposition Yposition Zposition Zrotation Yrotation Xrotation 
	JOINT LeftUpLeg
	{
		OFFSET 0.103459 1.857827 10.548504
		CHANNELS 3 Zrotation Yrotation Xrotation
		JOINT LeftLeg
		{
			OFFSET 43.500008 0.000000 0.000004
			CHANNELS 3 Zrotation Yrotation Xrotation
			JOINT LeftFoot
			{
				OFFSET 42.372192 0.000011 0.000000
				CHANNELS 3 Zrotation Yrotation Xrotation
				JOINT LeftToe
				{
					OFFSET 17.299973 -0.000013 -0.000010
					CHANNELS 3 Zrotation Yrotation Xrotation
					End Site
					{
						OFFSET 0.000000 0.000000 0.000000
					}
				}
			}
		}
	}
	JOINT RightUpLeg
	{
		OFFSET 0.103454 1.857830 -10.548500
		CHANNELS 3 Zrotation Yrotation Xrotation
		JOINT RightLeg
		{
			OFFSET 43.500038 -0.000038 0.000004
			CHANNELS 3 Zrotation Yrotation Xrotation
			JOINT RightFoot
			{
				OFFSET 42.372253 0.000019 0.000024
				CHANNELS 3 Zrotation Yrotation Xrotation
				JOINT RightToe
				{
					OFFSET 17.299988 -0.000007 0.000004
					CHANNELS 3 Zrotation Yrotation Xrotation
					End Site
					{
						OFFSET 0.000000 0.000000 0.000000
					}
				}
			}
		}
	}
	JOINT Spine
	{
		OFFSET 6.901963 -2.603744 0.000004
		CHANNELS 3 Zrotation Yrotation Xrotation
		JOINT Spine1
		{
			OFFSET 12.588104 0.000008 -0.000010
			CHANNELS 3 Zrotation Yrotation Xrotation
			JOINT Spine2
			{
				OFFSET 12.343202 -0.000005 0.000010
				CHANNELS 3 Zrotation Yrotation Xrotation
				JOINT Neck
				{
					OFFSET 25.832897 0.000000 0.000001
					CHANNELS 3 Zrotation Yrotation Xrotation
					JOINT Head
					{
						OFFSET 11.766611 -0.000006 -0.000000
						CHANNELS 3 Zrotation Yrotation Xrotation
						End Site
						{
							OFFSET 0.000000 0.000000 0.000000
						}
					}
				}
				JOINT LeftShoulder
				{
					OFFSET 19.745899 -1.480366 6.000108
					CHANNELS 3 Zrotation Yrotation Xrotation
					JOINT LeftArm
					{
						OFFSET 11.284111 -0.000018 -0.000015
						CHANNELS 3 Zrotation Yrotation Xrotation
						JOINT LeftForeArm
						{
							OFFSET 33.000050 -0.000005 0.000028
							CHANNELS 3 Zrotation Yrotation Xrotation
							JOINT LeftHand
							{
								OFFSET 25.200012 0.000000 0.000002
								CHANNELS 3 Zrotation Yrotation Xrotation
								End Site
								{
									OFFSET 0.000000 0.000000 0.000000
								}
							}
						}
					}
				}
				JOINT RightShoulder
				{
					OFFSET 19.746111 -1.480335 -6.000074
					CHANNELS 3 Zrotation Yrotation Xrotation
					JOINT RightArm
					{
						OFFSET 11.284151 0.000036 0.000001
						CHANNELS 3 Zrotation Yrotation Xrotation
						JOINT RightForeArm
						{
							OFFSET 33.000092 -0.000035 0.000022
							CHANNELS 3 Zrotation Yrotation Xrotation
							JOINT RightHand
							{
								OFFSET 25.199768 0.000178 0.000417
								CHANNELS 3 Zrotation Yrotation Xrotation
								End Site
								{
									OFFSET 0.000000 0.000000 0.000000
								}
							}
						}
					}
				}
			}
		}
	}
}
MOTION
Frames: 14
Frame Time: 0.033333
2.197711 0.356873 3.594213 96.623283 1.188787 127.414070 178.521118 0.244894 151.992523 -41.156086 1.228307 16.737976 73.949875 -19.861387 -10.944989 21.454407 0.003092 0.000000 141.225128 4.185028 -179.633133 -18.720724 6.535883 2.323064 48.416424 -16.022221 -21.884083 21.455153 -0.003109 -0.000017 13.716395 0.669904 -3.630571 12.177080 2.971339 -4.217716 6.593987 3.175083 -5.356992 -26.772129 -20.737972 -15.041862 35.728901 46.901489 22.873903 17.070118 -88.587357 153.590744 -30.911837 49.010235 117.034615 50.480698 -47.592407 -92.615089 -2.044255 -22.475193 32.269348 -162.762833 72.886810 11.348128 12.076846 -49.083805 -121.111320 26.239777 27.135227 25.291056 2.198521 24.021866 -18.612370 
4.547595 0.613452 7.163667 96.886024 0.250788 127.787666 179.189316 1.944524 151.594421 -37.048908 0.246436 16.023651 77.961182 -19.705770 -14.911665 21.454416 0.003092 0.000000 141.866867 3.939676 178.789093 -17.444975 5.180760 0.841315 46.583683 -15.598968 -21.487955 21.455151 -0.003109 -0.000017 13.511743 0.383784 -3.555538 12.599601 3.127074 -3.986117 6.998778 3.659504 -5.179787 -28.145760 -20.504808 -14.451941 36.215958 45.761471 23.435059 47.387615 -89.388657 123.516998 -34.625500 48.595150 113.528587 54.619274 -46.995304 -94.841171 -1.742319 -22.261942 31.344894 -162.758316 73.153465 11.294142 14.095032 -49.183750 -122.491196 24.432384 26.536634 25.469654 2.236521 23.898703 -20.122364 
6.923225 0.781386 10.679398 97.107338 -0.756841 127.268257 -179.597748 3.726180 152.566849 -33.351181 -0.057169 14.064800 79.792740 -18.848953 -17.643345 21.454412 0.003092 0.000000 142.320847 3.534696 177.858429 -17.729975 4.184389 -0.416247 46.821621 -14.687727 -22.574398 21.455112 -0.003109 -0.000017 13.494453 0.059344 -3.557788 12.994639 3.088307 -3.939983 7.603894 3.863321 -5.137415 -28.854931 -19.237923 -13.828452 36.483219 43.606499 24.125603 86.222404 -89.575249 85.045074 -36.547253 48.676487 111.218109 57.505074 -45.641743 -94.628372 -1.054223 -22.331287 29.408564 -163.141785 73.553711 10.899591 15.875126 -48.956806 -123.758858 24.445971 26.343390 26.366167 1.514386 23.491915 -21.274456 
9.166478 0.902832 14.192682 97.081848 -1.628383 125.880173 -178.039627 5.410566 154.377289 -30.918266 0.684700 11.359178 77.645966 -17.981846 -18.753031 21.454382 0.003092 0.000000 142.791077 3.064203 177.577240 -19.216377 3.808425 -1.335468 48.699760 -13.062417 -24.302090 21.455050 -0.003109 -0.000017 13.765850 -0.153219 -3.316661 13.346617 2.804530 -4.013119 8.180562 3.758748 -5.425889 -29.061737 -17.429512 -13.162757 35.946724 40.723736 24.542276 89.193375 -89.538170 82.516785 -36.350765 49.457623 110.636597 58.469666 -43.849445 -92.021439 -1.046241 -22.438828 28.801645 -163.354218 74.049789 10.706923 17.141949 -48.684380 -124.784027 26.366211 26.557798 27.991848 0.416344 23.563030 -21.496794 
11.108700 0.906418 17.689438 96.818268 -1.831995 124.411369 -177.442276 5.861886 156.822586 -31.735706 1.810796 7.409985 73.155739 -16.153013 -18.789774 21.454353 0.003092 0.000000 143.161163 2.521661 177.925583 -21.433044 4.550743 -0.904274 51.555607 -10.890713 -26.127634 21.455002 -0.003109 -0.000016 14.402766 0.137353 -3.353326 13.501185 2.500962 -4.126739 8.616421 3.349508 -5.397830 -28.724205 -15.684769 -12.294097 34.950485 37.739815 25.056881 74.611404 -89.466599 97.424309 -35.261440 50.766651 110.612816 58.428337 -41.965672 -88.361145 -1.761288 -22.771872 29.307571 -163.876541 74.659126 10.265022 18.295111 -48.589909 -125.839470 29.122456 26.763491 29.859262 -0.708848 23.771866 -21.393822 
12.654011 0.745753 21.019749 96.079880 -1.397913 123.306953 -178.182358 4.728914 158.530533 -36.032032 2.751292 2.590709 69.824539 -13.325152 -19.179995 21.454327 0.003093 0.000000 143.538818 1.767124 178.287415 -24.406927 6.339300 0.671646 55.356045 -8.429605 -27.350046 21.454945 -0.003109 -0.000016 15.113421 1.043957 -3.525759 13.471122 2.367024 -3.863856 8.593284 2.786592 -5.139245 -27.757196 -14.299497 -11.294971 33.751930 34.667282 25.776541 60.801125 -89.564781 111.691292 -34.566254 52.103683 109.995705 57.712704 -40.317993 -84.486488 -2.929103 -22.758675 30.892981 -164.786743 75.307213 9.339456 19.280352 -48.907024 -127.017166 31.854719 26.586981 31.550108 -1.235725 23.812550 -21.313650 
13.879433 0.610444 24.138332 94.866661 -0.785797 122.913567 178.967758 2.552857 160.722549 -43.746498 3.557319 -1.674311 70.479027 -10.724281 -20.384291 21.454317 0.003093 0.000000 143.324783 1.212184 178.477097 -28.029305 8.602198 2.720472 60.171764 -6.039741 -27.015764 21.454897 -0.003109 -0.000017 15.361779 2.402190 -3.416641 13.361079 2.532462 -3.503781 8.471305 2.379754 -4.795545 -26.523664 -13.439546 -10.154510 32.291058 31.794439 26.353727 68.285690 -89.516235 104.463058 -34.222523 53.399448 108.900085 56.301098 -39.060276 -80.959404 -3.811306 -22.084450 31.603916 -165.144867 75.618904 9.136779 19.925310 -49.746220 -128.136810 33.167049 26.416414 32.319202 -0.822452 24.457216 -20.479818 
14.958652 0.651635 27.121389 94.491814 -0.589220 122.902596 173.626709 0.684653 162.736130 -54.962929 4.135597 -3.824375 70.643211 -9.930275 -21.356968 21.454317 0.003093 0.000000 143.111191 1.421827 178.997986 -32.273560 10.338232 4.397320 64.827744 -3.944511 -24.178410 21.454887 -0.003109 -0.000017 15.407044 2.993549 -3.258298 13.219145 2.706210 -3.042699 8.216692 2.289508 -4.298303 -25.104462 -12.576350 -8.922700 31.196310 29.375126 27.194113 52.626194 -89.345680 120.256973 -35.294994 54.698994 106.108261 53.677128 -38.315014 -77.602333 -3.871145 -20.901058 31.440496 -165.385178 75.480011 9.268801 20.304939 -51.003159 -129.120300 32.490875 26.617472 32.018425 -0.157233 24.824354 -19.421661 
16.166880 0.816191 30.237019 94.901787 -0.802816 123.192604 167.136475 -0.332419 162.400284 -67.241844 5.300178 -3.371259 71.537933 -9.878568 -18.439798 21.454329 0.003093 0.000000 143.519745 2.088322 179.278381 -36.581829 11.297025 5.242673 68.377502 -3.506971 -18.711670 21.454887 -0.003109 -0.000017 15.450235 2.888381 -3.099653 13.131600 2.884174 -2.546472 7.872439 1.947497 -3.880972 -23.509260 -11.239215 -7.557304 30.333107 27.446329 28.089867 21.646585 -88.709259 151.356339 -36.351151 56.026764 103.276329 50.046734 -37.969444 -74.355301 -3.708435 -19.839790 31.954048 -165.249817 75.102448 9.785911 20.337481 -52.611931 -129.789139 31.057341 27.107489 31.135061 -0.057246 24.370787 -18.466969 
17.753752 1.100578 33.680752 95.988998 -1.061513 123.331451 160.522675 -1.011877 160.884857 -78.186897 5.669796 -3.825859 72.332680 -8.112959 -15.714915 21.454338 0.003092 0.000000 144.797318 2.671249 178.696991 -40.187370 11.391903 5.949116 71.451508 -4.076939 -12.668489 21.454905 -0.003109 -0.000017 15.486828 2.093317 -2.798233 13.340315 2.604494 -2.154155 7.826892 2.231993 -3.454439 -21.759623 -10.193941 -6.539603 29.473381 26.366865 28.800755 12.380528 -88.000412 160.698547 -35.735809 57.393639 102.187935 46.224255 -37.435440 -71.485580 -3.404391 -19.070723 32.289360 -165.071121 75.101494 10.462871 20.294127 -53.998764 -130.329330 30.793091 27.981583 30.275461 -0.448841 23.315212 -17.363470 
19.795216 1.475034 37.386642 97.076561 -1.126698 123.633026 155.294495 -1.923922 158.780197 -84.547844 5.566454 -4.772762 69.228088 -4.027475 -14.006583 21.454357 0.003091 -0.000000 146.803177 2.635615 177.325363 -42.572815 11.234738 6.796123 74.769974 -5.270991 -7.291989 21.454935 -0.003109 -0.000017 15.235745 1.370674 -2.562903 13.297862 2.526856 -1.840621 7.744616 2.473323 -3.035549 -19.691431 -9.882977 -5.952466 28.425842 25.930870 29.389244 7.969948 -87.828041 165.247192 -32.308857 58.809593 104.078857 42.525486 -36.199249 -68.983032 -3.038281 -18.759697 32.495373 -163.651718 75.575630 12.434355 20.207327 -54.883190 -130.722321 32.897964 28.941389 29.944252 -0.828463 22.002541 -16.194582 
22.222134 1.691673 41.238564 97.636887 -1.637725 124.040207 151.861908 -2.446961 156.985764 -85.510139 5.755009 -4.924630 66.132446 -0.914456 -12.633322 21.454372 0.003091 0.000000 147.886459 2.087364 175.753876 -44.567234 11.037837 7.636346 78.494865 -6.863666 -2.944674 21.454962 -0.003109 -0.000018 13.696797 1.030688 -2.433801 13.140693 2.448956 -1.720193 8.106354 2.421721 -2.820796 -17.848879 -10.143927 -5.687296 27.156174 25.924309 29.480625 2.312524 -88.270699 170.985519 -26.684341 59.524055 108.589241 39.402676 -34.546474 -66.756264 -2.847210 -18.784805 32.525856 -162.463715 76.003273 14.223371 19.845030 -55.082802 -130.744324 37.567516 29.762844 30.608269 -0.909796 21.187557 -14.646194 
24.833593 1.665608 45.113503 98.080414 -2.468229 124.076469 150.302536 -2.293515 155.410660 -81.960213 6.154423 -4.278635 64.848122 0.499363 -11.155759 21.454382 0.003090 0.000000 148.515549 1.522861 174.569611 -46.669102 10.540664 8.188084 82.880981 -8.088746 0.814030 21.454990 -0.003109 -0.000018 11.894176 0.727414 -2.329778 12.664047 2.245003 -1.715840 8.556219 2.207332 -2.697108 -16.293861 -10.750497 -5.653896 25.913345 26.544495 29.086739 -9.140955 -88.997894 -177.413391 -20.498734 59.817749 114.138039 36.585049 -32.922710 -64.648384 -2.870508 -19.119852 32.563313 -161.732056 76.160301 15.506398 19.571468 -54.842022 -130.574051 44.168056 30.795900 32.116871 -0.659379 21.099585 -13.007751 
27.375658 1.497131 48.902004 98.502708 -3.169880 123.966354 149.175674 -1.943440 153.837738 -76.067947 6.518825 -3.362336 62.801743 1.277853 -9.764120 21.454372 0.003090 0.000000 148.766678 1.268184 174.260681 -49.123417 9.973285 8.234100 87.480453 -8.755541 4.207791 21.455017 -0.003109 -0.000018 10.487140 0.457960 -2.238003 11.865518 1.949383 -1.765545 8.828034 1.928147 -2.602051 -14.960847 -11.580227 -5.982102 24.748579 27.593655 28.329256 -77.296349 -89.637375 -109.009277 -14.569826 59.813419 119.725708 33.937405 -31.861506 -62.633419 -3.117741 -19.915442 32.534885 -161.991135 75.832031 15.720989 19.414881 -54.464245 -130.397293 51.316471 31.911205 34.120686 -0.116460 21.118435 -11.104412 
